<svg xmlns="http://www.w3.org/2000/svg"
     xmlns:xlink="http://www.w3.org/1999/xlink"
     style="margin:auto;background:#060606;display:block;z-index:1;position:relative"
     width="163" height="163" preserveAspectRatio="xMidYMid" viewBox="0 0 163 163">

<g transform="scale(0.64)"><g>
  <line x1="204.98799575406625" x2="190.93606059740674" y1="215.41746315727275" y2="229.46939831393226" stroke-width="5" stroke="#ff0505" stroke-linecap="round"></line><line x1="204.98799575406625" x2="190.93606059740674" y1="-296.5825368427272" y2="-282.5306016860677" stroke-width="5" stroke="#ff0505" stroke-linecap="round"></line><line x1="460.9879957540662" x2="446.9360605974067" y1="-296.5825368427272" y2="-282.5306016860677" stroke-width="5" stroke="#ff0505" stroke-linecap="round"></line><line x1="716.9879957540662" x2="702.9360605974067" y1="-296.5825368427272" y2="-282.5306016860677" stroke-width="5" stroke="#ff0505" stroke-linecap="round"></line><line x1="204.98799575406625" x2="190.93606059740674" y1="-40.58253684272725" y2="-26.53060168606774" stroke-width="5" stroke="#ff0505" stroke-linecap="round"></line><line x1="460.9879957540662" x2="446.9360605974067" y1="-40.58253684272725" y2="-26.53060168606774" stroke-width="5" stroke="#ff0505" stroke-linecap="round"></line><line x1="716.9879957540662" x2="702.9360605974067" y1="-40.58253684272725" y2="-26.53060168606774" stroke-width="5" stroke="#ff0505" stroke-linecap="round"></line><line x1="204.98799575406625" x2="190.93606059740674" y1="215.41746315727275" y2="229.46939831393226" stroke-width="5" stroke="#ff0505" stroke-linecap="round"></line><line x1="460.9879957540662" x2="446.9360605974067" y1="215.41746315727275" y2="229.46939831393226" stroke-width="5" stroke="#ff0505" stroke-linecap="round"></line><line x1="716.9879957540662" x2="702.9360605974067" y1="215.41746315727275" y2="229.46939831393226" stroke-width="5" stroke="#ff0505" stroke-linecap="round"></line><line x1="52.823424128809485" x2="24.350639281468" y1="46.68421070288132" y2="75.1569955502228" stroke-width="5" stroke="#ff0505" stroke-linecap="round"></line><line x1="52.823424128809485" x2="24.350639281468" y1="-465.31578929711867" y2="-436.8430044497772" stroke-width="5" stroke="#ff0505" stroke-linecap="round"></line><line x1="308.8234241288095" x2="280.350639281468" y1="-465.31578929711867" y2="-436.8430044497772" stroke-width="5" stroke="#ff0505" stroke-linecap="round"></line><line x1="564.8234241288095" x2="536.350639281468" y1="-465.31578929711867" y2="-436.8430044497772" stroke-width="5" stroke="#ff0505" stroke-linecap="round"></line><line x1="52.823424128809485" x2="24.350639281468" y1="-209.31578929711867" y2="-180.8430044497772" stroke-width="5" stroke="#ff0505" stroke-linecap="round"></line><line x1="308.8234241288095" x2="280.350639281468" y1="-209.31578929711867" y2="-180.8430044497772" stroke-width="5" stroke="#ff0505" stroke-linecap="round"></line><line x1="564.8234241288095" x2="536.350639281468" y1="-209.31578929711867" y2="-180.8430044497772" stroke-width="5" stroke="#ff0505" stroke-linecap="round"></line><line x1="52.823424128809485" x2="24.350639281468" y1="46.68421070288132" y2="75.1569955502228" stroke-width="5" stroke="#ff0505" stroke-linecap="round"></line><line x1="308.8234241288095" x2="280.350639281468" y1="46.68421070288132" y2="75.1569955502228" stroke-width="5" stroke="#ff0505" stroke-linecap="round"></line><line x1="564.8234241288095" x2="536.350639281468" y1="46.68421070288132" y2="75.1569955502228" stroke-width="5" stroke="#ff0505" stroke-linecap="round"></line><line x1="212.71631907766007" x2="189.29549307264503" y1="-8.234845371922118" y2="15.185980633092923" stroke-width="5" stroke="#ff0505" stroke-linecap="round"></line><line x1="212.71631907766007" x2="189.29549307264503" y1="-520.2348453719221" y2="-496.8140193669071" stroke-width="5" stroke="#ff0505" stroke-linecap="round"></line><line x1="468.71631907766005" x2="445.29549307264506" y1="-520.2348453719221" y2="-496.8140193669071" stroke-width="5" stroke="#ff0505" stroke-linecap="round"></line><line x1="724.71631907766" x2="701.2954930726451" y1="-520.2348453719221" y2="-496.8140193669071" stroke-width="5" stroke="#ff0505" stroke-linecap="round"></line><line x1="212.71631907766007" x2="189.29549307264503" y1="-264.2348453719221" y2="-240.81401936690708" stroke-width="5" stroke="#ff0505" stroke-linecap="round"></line><line x1="468.71631907766005" x2="445.29549307264506" y1="-264.2348453719221" y2="-240.81401936690708" stroke-width="5" stroke="#ff0505" stroke-linecap="round"></line><line x1="724.71631907766" x2="701.2954930726451" y1="-264.2348453719221" y2="-240.81401936690708" stroke-width="5" stroke="#ff0505" stroke-linecap="round"></line><line x1="212.71631907766007" x2="189.29549307264503" y1="-8.234845371922118" y2="15.185980633092923" stroke-width="5" stroke="#ff0505" stroke-linecap="round"></line><line x1="468.71631907766005" x2="445.29549307264506" y1="-8.234845371922118" y2="15.185980633092923" stroke-width="5" stroke="#ff0505" stroke-linecap="round"></line><line x1="724.71631907766" x2="701.2954930726451" y1="-8.234845371922118" y2="15.185980633092923" stroke-width="5" stroke="#ff0505" stroke-linecap="round"></line><line x1="212.71631907766007" x2="189.29549307264503" y1="247.76515462807788" y2="271.1859806330929" stroke-width="5" stroke="#ff0505" stroke-linecap="round"></line><line x1="230.3249256506117" x2="220.3134887194022" y1="9.700788186654151" y2="19.712225117863696" stroke-width="5" stroke="#ff0505" stroke-linecap="round"></line><line x1="230.3249256506117" x2="220.3134887194022" y1="-502.29921181334583" y2="-492.2877748821363" stroke-width="5" stroke="#ff0505" stroke-linecap="round"></line><line x1="486.3249256506117" x2="476.3134887194022" y1="-502.29921181334583" y2="-492.2877748821363" stroke-width="5" stroke="#ff0505" stroke-linecap="round"></line><line x1="742.3249256506117" x2="732.3134887194021" y1="-502.29921181334583" y2="-492.2877748821363" stroke-width="5" stroke="#ff0505" stroke-linecap="round"></line><line x1="230.3249256506117" x2="220.3134887194022" y1="-246.29921181334583" y2="-236.28777488213632" stroke-width="5" stroke="#ff0505" stroke-linecap="round"></line><line x1="486.3249256506117" x2="476.3134887194022" y1="-246.29921181334583" y2="-236.28777488213632" stroke-width="5" stroke="#ff0505" stroke-linecap="round"></line><line x1="742.3249256506117" x2="732.3134887194021" y1="-246.29921181334583" y2="-236.28777488213632" stroke-width="5" stroke="#ff0505" stroke-linecap="round"></line><line x1="230.3249256506117" x2="220.3134887194022" y1="9.700788186654151" y2="19.712225117863696" stroke-width="5" stroke="#ff0505" stroke-linecap="round"></line><line x1="486.3249256506117" x2="476.3134887194022" y1="9.700788186654151" y2="19.712225117863696" stroke-width="5" stroke="#ff0505" stroke-linecap="round"></line><line x1="742.3249256506117" x2="732.3134887194021" y1="9.700788186654151" y2="19.712225117863696" stroke-width="5" stroke="#ff0505" stroke-linecap="round"></line><line x1="210.35131251311927" x2="202.96370130733996" y1="102.94188834404737" y2="110.3294995498267" stroke-width="5" stroke="#ff0505" stroke-linecap="round"></line><line x1="210.35131251311927" x2="202.96370130733996" y1="-409.05811165595264" y2="-401.6705004501733" stroke-width="5" stroke="#ff0505" stroke-linecap="round"></line><line x1="466.3513125131193" x2="458.96370130734" y1="-409.05811165595264" y2="-401.6705004501733" stroke-width="5" stroke="#ff0505" stroke-linecap="round"></line><line x1="722.3513125131193" x2="714.96370130734" y1="-409.05811165595264" y2="-401.6705004501733" stroke-width="5" stroke="#ff0505" stroke-linecap="round"></line><line x1="210.35131251311927" x2="202.96370130733996" y1="-153.05811165595264" y2="-145.67050045017328" stroke-width="5" stroke="#ff0505" stroke-linecap="round"></line><line x1="466.3513125131193" x2="458.96370130734" y1="-153.05811165595264" y2="-145.67050045017328" stroke-width="5" stroke="#ff0505" stroke-linecap="round"></line><line x1="722.3513125131193" x2="714.96370130734" y1="-153.05811165595264" y2="-145.67050045017328" stroke-width="5" stroke="#ff0505" stroke-linecap="round"></line><line x1="210.35131251311927" x2="202.96370130733996" y1="102.94188834404737" y2="110.3294995498267" stroke-width="5" stroke="#ff0505" stroke-linecap="round"></line><line x1="466.3513125131193" x2="458.96370130734" y1="102.94188834404737" y2="110.3294995498267" stroke-width="5" stroke="#ff0505" stroke-linecap="round"></line><line x1="722.3513125131193" x2="714.96370130734" y1="102.94188834404737" y2="110.3294995498267" stroke-width="5" stroke="#ff0505" stroke-linecap="round"></line><line x1="46.25819109696465" x2="16.406627388849476" y1="17.58890633884568" y2="47.440470046960854" stroke-width="5" stroke="#ff0505" stroke-linecap="round"></line><line x1="46.25819109696465" x2="16.406627388849476" y1="-494.4110936611543" y2="-464.55952995303915" stroke-width="5" stroke="#ff0505" stroke-linecap="round"></line><line x1="302.25819109696465" x2="272.4066273888495" y1="-494.4110936611543" y2="-464.55952995303915" stroke-width="5" stroke="#ff0505" stroke-linecap="round"></line><line x1="558.2581910969647" x2="528.4066273888495" y1="-494.4110936611543" y2="-464.55952995303915" stroke-width="5" stroke="#ff0505" stroke-linecap="round"></line><line x1="46.25819109696465" x2="16.406627388849476" y1="-238.41109366115433" y2="-208.55952995303915" stroke-width="5" stroke="#ff0505" stroke-linecap="round"></line><line x1="302.25819109696465" x2="272.4066273888495" y1="-238.41109366115433" y2="-208.55952995303915" stroke-width="5" stroke="#ff0505" stroke-linecap="round"></line><line x1="558.2581910969647" x2="528.4066273888495" y1="-238.41109366115433" y2="-208.55952995303915" stroke-width="5" stroke="#ff0505" stroke-linecap="round"></line><line x1="46.25819109696465" x2="16.406627388849476" y1="17.58890633884568" y2="47.440470046960854" stroke-width="5" stroke="#ff0505" stroke-linecap="round"></line><line x1="302.25819109696465" x2="272.4066273888495" y1="17.58890633884568" y2="47.440470046960854" stroke-width="5" stroke="#ff0505" stroke-linecap="round"></line><line x1="558.2581910969647" x2="528.4066273888495" y1="17.58890633884568" y2="47.440470046960854" stroke-width="5" stroke="#ff0505" stroke-linecap="round"></line><line x1="172.79731077733322" x2="143.9257536668777" y1="104.84137059449498" y2="133.7129277049505" stroke-width="5" stroke="#ff0505" stroke-linecap="round"></line><line x1="172.79731077733322" x2="143.9257536668777" y1="-407.15862940550505" y2="-378.2870722950495" stroke-width="5" stroke="#ff0505" stroke-linecap="round"></line><line x1="428.7973107773332" x2="399.9257536668777" y1="-407.15862940550505" y2="-378.2870722950495" stroke-width="5" stroke="#ff0505" stroke-linecap="round"></line><line x1="684.7973107773332" x2="655.9257536668777" y1="-407.15862940550505" y2="-378.2870722950495" stroke-width="5" stroke="#ff0505" stroke-linecap="round"></line><line x1="172.79731077733322" x2="143.9257536668777" y1="-151.15862940550502" y2="-122.28707229504951" stroke-width="5" stroke="#ff0505" stroke-linecap="round"></line><line x1="428.7973107773332" x2="399.9257536668777" y1="-151.15862940550502" y2="-122.28707229504951" stroke-width="5" stroke="#ff0505" stroke-linecap="round"></line><line x1="684.7973107773332" x2="655.9257536668777" y1="-151.15862940550502" y2="-122.28707229504951" stroke-width="5" stroke="#ff0505" stroke-linecap="round"></line><line x1="172.79731077733322" x2="143.9257536668777" y1="104.84137059449498" y2="133.7129277049505" stroke-width="5" stroke="#ff0505" stroke-linecap="round"></line><line x1="428.7973107773332" x2="399.9257536668777" y1="104.84137059449498" y2="133.7129277049505" stroke-width="5" stroke="#ff0505" stroke-linecap="round"></line><line x1="684.7973107773332" x2="655.9257536668777" y1="104.84137059449498" y2="133.7129277049505" stroke-width="5" stroke="#ff0505" stroke-linecap="round"></line><line x1="153.3781129349702" x2="141.99721810170837" y1="62.696659303152686" y2="74.07755413641449" stroke-width="5" stroke="#ff0505" stroke-linecap="round"></line><line x1="153.3781129349702" x2="141.99721810170837" y1="-449.30334069684733" y2="-437.9224458635855" stroke-width="5" stroke="#ff0505" stroke-linecap="round"></line><line x1="409.3781129349702" x2="397.99721810170837" y1="-449.30334069684733" y2="-437.9224458635855" stroke-width="5" stroke="#ff0505" stroke-linecap="round"></line><line x1="665.3781129349702" x2="653.9972181017083" y1="-449.30334069684733" y2="-437.9224458635855" stroke-width="5" stroke="#ff0505" stroke-linecap="round"></line><line x1="153.3781129349702" x2="141.99721810170837" y1="-193.30334069684733" y2="-181.9224458635855" stroke-width="5" stroke="#ff0505" stroke-linecap="round"></line><line x1="409.3781129349702" x2="397.99721810170837" y1="-193.30334069684733" y2="-181.9224458635855" stroke-width="5" stroke="#ff0505" stroke-linecap="round"></line><line x1="665.3781129349702" x2="653.9972181017083" y1="-193.30334069684733" y2="-181.9224458635855" stroke-width="5" stroke="#ff0505" stroke-linecap="round"></line><line x1="153.3781129349702" x2="141.99721810170837" y1="62.696659303152686" y2="74.07755413641449" stroke-width="5" stroke="#ff0505" stroke-linecap="round"></line><line x1="409.3781129349702" x2="397.99721810170837" y1="62.696659303152686" y2="74.07755413641449" stroke-width="5" stroke="#ff0505" stroke-linecap="round"></line><line x1="665.3781129349702" x2="653.9972181017083" y1="62.696659303152686" y2="74.07755413641449" stroke-width="5" stroke="#ff0505" stroke-linecap="round"></line><line x1="123.18982652579821" x2="98.45136416634436" y1="152.89565322015244" y2="177.63411557960632" stroke-width="5" stroke="#ff0505" stroke-linecap="round"></line><line x1="123.18982652579821" x2="98.45136416634436" y1="-359.10434677984756" y2="-334.3658844203937" stroke-width="5" stroke="#ff0505" stroke-linecap="round"></line><line x1="379.1898265257982" x2="354.4513641663444" y1="-359.10434677984756" y2="-334.3658844203937" stroke-width="5" stroke="#ff0505" stroke-linecap="round"></line><line x1="635.1898265257983" x2="610.4513641663443" y1="-359.10434677984756" y2="-334.3658844203937" stroke-width="5" stroke="#ff0505" stroke-linecap="round"></line><line x1="123.18982652579821" x2="98.45136416634436" y1="-103.10434677984756" y2="-78.36588442039368" stroke-width="5" stroke="#ff0505" stroke-linecap="round"></line><line x1="379.1898265257982" x2="354.4513641663444" y1="-103.10434677984756" y2="-78.36588442039368" stroke-width="5" stroke="#ff0505" stroke-linecap="round"></line><line x1="635.1898265257983" x2="610.4513641663443" y1="-103.10434677984756" y2="-78.36588442039368" stroke-width="5" stroke="#ff0505" stroke-linecap="round"></line><line x1="123.18982652579821" x2="98.45136416634436" y1="152.89565322015244" y2="177.63411557960632" stroke-width="5" stroke="#ff0505" stroke-linecap="round"></line><line x1="379.1898265257982" x2="354.4513641663444" y1="152.89565322015244" y2="177.63411557960632" stroke-width="5" stroke="#ff0505" stroke-linecap="round"></line><line x1="635.1898265257983" x2="610.4513641663443" y1="152.89565322015244" y2="177.63411557960632" stroke-width="5" stroke="#ff0505" stroke-linecap="round"></line><line x1="98.25664920109286" x2="90.94239346524601" y1="88.26927221769715" y2="95.58352795354399" stroke-width="5" stroke="#ff0505" stroke-linecap="round"></line><line x1="98.25664920109286" x2="90.94239346524601" y1="-423.73072778230284" y2="-416.416472046456" stroke-width="5" stroke="#ff0505" stroke-linecap="round"></line><line x1="354.25664920109284" x2="346.942393465246" y1="-423.73072778230284" y2="-416.416472046456" stroke-width="5" stroke="#ff0505" stroke-linecap="round"></line><line x1="610.2566492010928" x2="602.942393465246" y1="-423.73072778230284" y2="-416.416472046456" stroke-width="5" stroke="#ff0505" stroke-linecap="round"></line><line x1="98.25664920109286" x2="90.94239346524601" y1="-167.73072778230284" y2="-160.41647204645602" stroke-width="5" stroke="#ff0505" stroke-linecap="round"></line><line x1="354.25664920109284" x2="346.942393465246" y1="-167.73072778230284" y2="-160.41647204645602" stroke-width="5" stroke="#ff0505" stroke-linecap="round"></line><line x1="610.2566492010928" x2="602.942393465246" y1="-167.73072778230284" y2="-160.41647204645602" stroke-width="5" stroke="#ff0505" stroke-linecap="round"></line><line x1="98.25664920109286" x2="90.94239346524601" y1="88.26927221769715" y2="95.58352795354399" stroke-width="5" stroke="#ff0505" stroke-linecap="round"></line><line x1="354.25664920109284" x2="346.942393465246" y1="88.26927221769715" y2="95.58352795354399" stroke-width="5" stroke="#ff0505" stroke-linecap="round"></line><line x1="610.2566492010928" x2="602.942393465246" y1="88.26927221769715" y2="95.58352795354399" stroke-width="5" stroke="#ff0505" stroke-linecap="round"></line>
  <animateTransform attributeName="transform" type="translate" values="0 0;-256 256" keyTimes="0;1" repeatCount="indefinite" dur="5s"></animateTransform>
</g><g>
  <line x1="192.82727514452233" x2="173.68657397815815" y1="8.797214970077182" y2="27.937916136441384" stroke-width="5" stroke="#dc143c" stroke-linecap="round"></line><line x1="192.82727514452233" x2="173.68657397815815" y1="-503.20278502992284" y2="-484.0620838635586" stroke-width="5" stroke="#dc143c" stroke-linecap="round"></line><line x1="448.82727514452233" x2="429.68657397815815" y1="-503.20278502992284" y2="-484.0620838635586" stroke-width="5" stroke="#dc143c" stroke-linecap="round"></line><line x1="704.8272751445223" x2="685.6865739781581" y1="-503.20278502992284" y2="-484.0620838635586" stroke-width="5" stroke="#dc143c" stroke-linecap="round"></line><line x1="192.82727514452233" x2="173.68657397815815" y1="-247.2027850299228" y2="-228.06208386355863" stroke-width="5" stroke="#dc143c" stroke-linecap="round"></line><line x1="448.82727514452233" x2="429.68657397815815" y1="-247.2027850299228" y2="-228.06208386355863" stroke-width="5" stroke="#dc143c" stroke-linecap="round"></line><line x1="704.8272751445223" x2="685.6865739781581" y1="-247.2027850299228" y2="-228.06208386355863" stroke-width="5" stroke="#dc143c" stroke-linecap="round"></line><line x1="192.82727514452233" x2="173.68657397815815" y1="8.797214970077182" y2="27.937916136441384" stroke-width="5" stroke="#dc143c" stroke-linecap="round"></line><line x1="448.82727514452233" x2="429.68657397815815" y1="8.797214970077182" y2="27.937916136441384" stroke-width="5" stroke="#dc143c" stroke-linecap="round"></line><line x1="704.8272751445223" x2="685.6865739781581" y1="8.797214970077182" y2="27.937916136441384" stroke-width="5" stroke="#dc143c" stroke-linecap="round"></line><line x1="43.19901622468603" x2="31.36179447679894" y1="138.98037882832415" y2="150.81760057621125" stroke-width="5" stroke="#dc143c" stroke-linecap="round"></line><line x1="43.19901622468603" x2="31.36179447679894" y1="-373.01962117167585" y2="-361.18239942378875" stroke-width="5" stroke="#dc143c" stroke-linecap="round"></line><line x1="299.19901622468603" x2="287.36179447679893" y1="-373.01962117167585" y2="-361.18239942378875" stroke-width="5" stroke="#dc143c" stroke-linecap="round"></line><line x1="555.199016224686" x2="543.361794476799" y1="-373.01962117167585" y2="-361.18239942378875" stroke-width="5" stroke="#dc143c" stroke-linecap="round"></line><line x1="43.19901622468603" x2="31.36179447679894" y1="-117.01962117167585" y2="-105.18239942378875" stroke-width="5" stroke="#dc143c" stroke-linecap="round"></line><line x1="299.19901622468603" x2="287.36179447679893" y1="-117.01962117167585" y2="-105.18239942378875" stroke-width="5" stroke="#dc143c" stroke-linecap="round"></line><line x1="555.199016224686" x2="543.361794476799" y1="-117.01962117167585" y2="-105.18239942378875" stroke-width="5" stroke="#dc143c" stroke-linecap="round"></line><line x1="43.19901622468603" x2="31.36179447679894" y1="138.98037882832415" y2="150.81760057621125" stroke-width="5" stroke="#dc143c" stroke-linecap="round"></line><line x1="299.19901622468603" x2="287.36179447679893" y1="138.98037882832415" y2="150.81760057621125" stroke-width="5" stroke="#dc143c" stroke-linecap="round"></line><line x1="555.199016224686" x2="543.361794476799" y1="138.98037882832415" y2="150.81760057621125" stroke-width="5" stroke="#dc143c" stroke-linecap="round"></line><line x1="175.70704143539766" x2="147.9251952160906" y1="91.49637509048054" y2="119.2782213097876" stroke-width="5" stroke="#dc143c" stroke-linecap="round"></line><line x1="175.70704143539766" x2="147.9251952160906" y1="-420.50362490951943" y2="-392.72177869021243" stroke-width="5" stroke="#dc143c" stroke-linecap="round"></line><line x1="431.7070414353976" x2="403.92519521609063" y1="-420.50362490951943" y2="-392.72177869021243" stroke-width="5" stroke="#dc143c" stroke-linecap="round"></line><line x1="687.7070414353976" x2="659.9251952160906" y1="-420.50362490951943" y2="-392.72177869021243" stroke-width="5" stroke="#dc143c" stroke-linecap="round"></line><line x1="175.70704143539766" x2="147.9251952160906" y1="-164.50362490951946" y2="-136.7217786902124" stroke-width="5" stroke="#dc143c" stroke-linecap="round"></line><line x1="431.7070414353976" x2="403.92519521609063" y1="-164.50362490951946" y2="-136.7217786902124" stroke-width="5" stroke="#dc143c" stroke-linecap="round"></line><line x1="687.7070414353976" x2="659.9251952160906" y1="-164.50362490951946" y2="-136.7217786902124" stroke-width="5" stroke="#dc143c" stroke-linecap="round"></line><line x1="175.70704143539766" x2="147.9251952160906" y1="91.49637509048054" y2="119.2782213097876" stroke-width="5" stroke="#dc143c" stroke-linecap="round"></line><line x1="431.7070414353976" x2="403.92519521609063" y1="91.49637509048054" y2="119.2782213097876" stroke-width="5" stroke="#dc143c" stroke-linecap="round"></line><line x1="687.7070414353976" x2="659.9251952160906" y1="91.49637509048054" y2="119.2782213097876" stroke-width="5" stroke="#dc143c" stroke-linecap="round"></line><line x1="76.58258851672845" x2="47.54335394431335" y1="223.01644846771887" y2="252.055683040134" stroke-width="5" stroke="#dc143c" stroke-linecap="round"></line><line x1="76.58258851672845" x2="47.54335394431335" y1="-288.9835515322811" y2="-259.944316959866" stroke-width="5" stroke="#dc143c" stroke-linecap="round"></line><line x1="332.58258851672844" x2="303.54335394431337" y1="-288.9835515322811" y2="-259.944316959866" stroke-width="5" stroke="#dc143c" stroke-linecap="round"></line><line x1="588.5825885167285" x2="559.5433539443134" y1="-288.9835515322811" y2="-259.944316959866" stroke-width="5" stroke="#dc143c" stroke-linecap="round"></line><line x1="76.58258851672845" x2="47.54335394431335" y1="-32.983551532281126" y2="-3.9443169598660006" stroke-width="5" stroke="#dc143c" stroke-linecap="round"></line><line x1="332.58258851672844" x2="303.54335394431337" y1="-32.983551532281126" y2="-3.9443169598660006" stroke-width="5" stroke="#dc143c" stroke-linecap="round"></line><line x1="588.5825885167285" x2="559.5433539443134" y1="-32.983551532281126" y2="-3.9443169598660006" stroke-width="5" stroke="#dc143c" stroke-linecap="round"></line><line x1="76.58258851672845" x2="47.54335394431335" y1="223.01644846771887" y2="252.055683040134" stroke-width="5" stroke="#dc143c" stroke-linecap="round"></line><line x1="332.58258851672844" x2="303.54335394431337" y1="223.01644846771887" y2="252.055683040134" stroke-width="5" stroke="#dc143c" stroke-linecap="round"></line><line x1="588.5825885167285" x2="559.5433539443134" y1="223.01644846771887" y2="252.055683040134" stroke-width="5" stroke="#dc143c" stroke-linecap="round"></line><line x1="110.05253495083913" x2="102.40318858001017" y1="198.22373116840893" y2="205.87307753923793" stroke-width="5" stroke="#dc143c" stroke-linecap="round"></line><line x1="110.05253495083913" x2="102.40318858001017" y1="-313.7762688315911" y2="-306.1269224607621" stroke-width="5" stroke="#dc143c" stroke-linecap="round"></line><line x1="366.0525349508391" x2="358.4031885800102" y1="-313.7762688315911" y2="-306.1269224607621" stroke-width="5" stroke="#dc143c" stroke-linecap="round"></line><line x1="622.0525349508391" x2="614.4031885800101" y1="-313.7762688315911" y2="-306.1269224607621" stroke-width="5" stroke="#dc143c" stroke-linecap="round"></line><line x1="110.05253495083913" x2="102.40318858001017" y1="-57.77626883159107" y2="-50.126922460762074" stroke-width="5" stroke="#dc143c" stroke-linecap="round"></line><line x1="366.0525349508391" x2="358.4031885800102" y1="-57.77626883159107" y2="-50.126922460762074" stroke-width="5" stroke="#dc143c" stroke-linecap="round"></line><line x1="622.0525349508391" x2="614.4031885800101" y1="-57.77626883159107" y2="-50.126922460762074" stroke-width="5" stroke="#dc143c" stroke-linecap="round"></line><line x1="110.05253495083913" x2="102.40318858001017" y1="198.22373116840893" y2="205.87307753923793" stroke-width="5" stroke="#dc143c" stroke-linecap="round"></line><line x1="366.0525349508391" x2="358.4031885800102" y1="198.22373116840893" y2="205.87307753923793" stroke-width="5" stroke="#dc143c" stroke-linecap="round"></line><line x1="622.0525349508391" x2="614.4031885800101" y1="198.22373116840893" y2="205.87307753923793" stroke-width="5" stroke="#dc143c" stroke-linecap="round"></line><line x1="54.82611065697112" x2="42.94644388352358" y1="52.48570071422284" y2="64.36536748767037" stroke-width="5" stroke="#dc143c" stroke-linecap="round"></line><line x1="54.82611065697112" x2="42.94644388352358" y1="-459.51429928577716" y2="-447.63463251232963" stroke-width="5" stroke="#dc143c" stroke-linecap="round"></line><line x1="310.82611065697114" x2="298.94644388352356" y1="-459.51429928577716" y2="-447.63463251232963" stroke-width="5" stroke="#dc143c" stroke-linecap="round"></line><line x1="566.8261106569711" x2="554.9464438835236" y1="-459.51429928577716" y2="-447.63463251232963" stroke-width="5" stroke="#dc143c" stroke-linecap="round"></line><line x1="54.82611065697112" x2="42.94644388352358" y1="-203.51429928577716" y2="-191.63463251232963" stroke-width="5" stroke="#dc143c" stroke-linecap="round"></line><line x1="310.82611065697114" x2="298.94644388352356" y1="-203.51429928577716" y2="-191.63463251232963" stroke-width="5" stroke="#dc143c" stroke-linecap="round"></line><line x1="566.8261106569711" x2="554.9464438835236" y1="-203.51429928577716" y2="-191.63463251232963" stroke-width="5" stroke="#dc143c" stroke-linecap="round"></line><line x1="54.82611065697112" x2="42.94644388352358" y1="52.48570071422284" y2="64.36536748767037" stroke-width="5" stroke="#dc143c" stroke-linecap="round"></line><line x1="310.82611065697114" x2="298.94644388352356" y1="52.48570071422284" y2="64.36536748767037" stroke-width="5" stroke="#dc143c" stroke-linecap="round"></line><line x1="566.8261106569711" x2="554.9464438835236" y1="52.48570071422284" y2="64.36536748767037" stroke-width="5" stroke="#dc143c" stroke-linecap="round"></line><line x1="169.17859155388987" x2="150.46251376831003" y1="123.29364251906657" y2="142.0097203046464" stroke-width="5" stroke="#dc143c" stroke-linecap="round"></line><line x1="169.17859155388987" x2="150.46251376831003" y1="-388.70635748093343" y2="-369.9902796953536" stroke-width="5" stroke="#dc143c" stroke-linecap="round"></line><line x1="425.1785915538899" x2="406.46251376831003" y1="-388.70635748093343" y2="-369.9902796953536" stroke-width="5" stroke="#dc143c" stroke-linecap="round"></line><line x1="681.1785915538899" x2="662.46251376831" y1="-388.70635748093343" y2="-369.9902796953536" stroke-width="5" stroke="#dc143c" stroke-linecap="round"></line><line x1="169.17859155388987" x2="150.46251376831003" y1="-132.70635748093343" y2="-113.99027969535359" stroke-width="5" stroke="#dc143c" stroke-linecap="round"></line><line x1="425.1785915538899" x2="406.46251376831003" y1="-132.70635748093343" y2="-113.99027969535359" stroke-width="5" stroke="#dc143c" stroke-linecap="round"></line><line x1="681.1785915538899" x2="662.46251376831" y1="-132.70635748093343" y2="-113.99027969535359" stroke-width="5" stroke="#dc143c" stroke-linecap="round"></line><line x1="169.17859155388987" x2="150.46251376831003" y1="123.29364251906657" y2="142.0097203046464" stroke-width="5" stroke="#dc143c" stroke-linecap="round"></line><line x1="425.1785915538899" x2="406.46251376831003" y1="123.29364251906657" y2="142.0097203046464" stroke-width="5" stroke="#dc143c" stroke-linecap="round"></line><line x1="681.1785915538899" x2="662.46251376831" y1="123.29364251906657" y2="142.0097203046464" stroke-width="5" stroke="#dc143c" stroke-linecap="round"></line><line x1="165.8801788584886" x2="153.42792188010793" y1="193.88172389032582" y2="206.33398086870648" stroke-width="5" stroke="#dc143c" stroke-linecap="round"></line><line x1="165.8801788584886" x2="153.42792188010793" y1="-318.1182761096742" y2="-305.6660191312935" stroke-width="5" stroke="#dc143c" stroke-linecap="round"></line><line x1="421.8801788584886" x2="409.42792188010793" y1="-318.1182761096742" y2="-305.6660191312935" stroke-width="5" stroke="#dc143c" stroke-linecap="round"></line><line x1="677.8801788584885" x2="665.427921880108" y1="-318.1182761096742" y2="-305.6660191312935" stroke-width="5" stroke="#dc143c" stroke-linecap="round"></line><line x1="165.8801788584886" x2="153.42792188010793" y1="-62.118276109674184" y2="-49.666019131293524" stroke-width="5" stroke="#dc143c" stroke-linecap="round"></line><line x1="421.8801788584886" x2="409.42792188010793" y1="-62.118276109674184" y2="-49.666019131293524" stroke-width="5" stroke="#dc143c" stroke-linecap="round"></line><line x1="677.8801788584885" x2="665.427921880108" y1="-62.118276109674184" y2="-49.666019131293524" stroke-width="5" stroke="#dc143c" stroke-linecap="round"></line><line x1="165.8801788584886" x2="153.42792188010793" y1="193.88172389032582" y2="206.33398086870648" stroke-width="5" stroke="#dc143c" stroke-linecap="round"></line><line x1="421.8801788584886" x2="409.42792188010793" y1="193.88172389032582" y2="206.33398086870648" stroke-width="5" stroke="#dc143c" stroke-linecap="round"></line><line x1="677.8801788584885" x2="665.427921880108" y1="193.88172389032582" y2="206.33398086870648" stroke-width="5" stroke="#dc143c" stroke-linecap="round"></line><line x1="255.41120978469664" x2="237.1479819872536" y1="98.13929626104812" y2="116.40252405849117" stroke-width="5" stroke="#dc143c" stroke-linecap="round"></line><line x1="255.41120978469664" x2="237.1479819872536" y1="-413.8607037389519" y2="-395.59747594150883" stroke-width="5" stroke="#dc143c" stroke-linecap="round"></line><line x1="511.41120978469667" x2="493.1479819872536" y1="-413.8607037389519" y2="-395.59747594150883" stroke-width="5" stroke="#dc143c" stroke-linecap="round"></line><line x1="767.4112097846967" x2="749.1479819872536" y1="-413.8607037389519" y2="-395.59747594150883" stroke-width="5" stroke="#dc143c" stroke-linecap="round"></line><line x1="255.41120978469664" x2="237.1479819872536" y1="-157.86070373895188" y2="-139.59747594150883" stroke-width="5" stroke="#dc143c" stroke-linecap="round"></line><line x1="511.41120978469667" x2="493.1479819872536" y1="-157.86070373895188" y2="-139.59747594150883" stroke-width="5" stroke="#dc143c" stroke-linecap="round"></line><line x1="767.4112097846967" x2="749.1479819872536" y1="-157.86070373895188" y2="-139.59747594150883" stroke-width="5" stroke="#dc143c" stroke-linecap="round"></line><line x1="255.41120978469664" x2="237.1479819872536" y1="98.13929626104812" y2="116.40252405849117" stroke-width="5" stroke="#dc143c" stroke-linecap="round"></line><line x1="511.41120978469667" x2="493.1479819872536" y1="98.13929626104812" y2="116.40252405849117" stroke-width="5" stroke="#dc143c" stroke-linecap="round"></line><line x1="767.4112097846967" x2="749.1479819872536" y1="98.13929626104812" y2="116.40252405849117" stroke-width="5" stroke="#dc143c" stroke-linecap="round"></line><line x1="160.0143541476539" x2="145.43551079859023" y1="237.89113651958587" y2="252.46997986864955" stroke-width="5" stroke="#dc143c" stroke-linecap="round"></line><line x1="160.0143541476539" x2="145.43551079859023" y1="-274.10886348041413" y2="-259.53002013135045" stroke-width="5" stroke="#dc143c" stroke-linecap="round"></line><line x1="416.0143541476539" x2="401.43551079859026" y1="-274.10886348041413" y2="-259.53002013135045" stroke-width="5" stroke="#dc143c" stroke-linecap="round"></line><line x1="672.0143541476539" x2="657.4355107985903" y1="-274.10886348041413" y2="-259.53002013135045" stroke-width="5" stroke="#dc143c" stroke-linecap="round"></line><line x1="160.0143541476539" x2="145.43551079859023" y1="-18.10886348041413" y2="-3.5300201313504544" stroke-width="5" stroke="#dc143c" stroke-linecap="round"></line><line x1="416.0143541476539" x2="401.43551079859026" y1="-18.10886348041413" y2="-3.5300201313504544" stroke-width="5" stroke="#dc143c" stroke-linecap="round"></line><line x1="672.0143541476539" x2="657.4355107985903" y1="-18.10886348041413" y2="-3.5300201313504544" stroke-width="5" stroke="#dc143c" stroke-linecap="round"></line><line x1="160.0143541476539" x2="145.43551079859023" y1="237.89113651958587" y2="252.46997986864955" stroke-width="5" stroke="#dc143c" stroke-linecap="round"></line><line x1="416.0143541476539" x2="401.43551079859026" y1="237.89113651958587" y2="252.46997986864955" stroke-width="5" stroke="#dc143c" stroke-linecap="round"></line><line x1="672.0143541476539" x2="657.4355107985903" y1="237.89113651958587" y2="252.46997986864955" stroke-width="5" stroke="#dc143c" stroke-linecap="round"></line>
  <animateTransform attributeName="transform" type="translate" values="0 0;-256 256" keyTimes="0;1" repeatCount="indefinite" dur="2.5s"></animateTransform>
</g><g>
  <line x1="121.5441540086881" x2="111.21450174828335" y1="113.23522198780294" y2="123.56487424820769" stroke-width="5" stroke="#ff0505" stroke-linecap="round"></line><line x1="121.5441540086881" x2="111.21450174828335" y1="-398.76477801219704" y2="-388.4351257517923" stroke-width="5" stroke="#ff0505" stroke-linecap="round"></line><line x1="377.5441540086881" x2="367.21450174828334" y1="-398.76477801219704" y2="-388.4351257517923" stroke-width="5" stroke="#ff0505" stroke-linecap="round"></line><line x1="633.5441540086881" x2="623.2145017482834" y1="-398.76477801219704" y2="-388.4351257517923" stroke-width="5" stroke="#ff0505" stroke-linecap="round"></line><line x1="121.5441540086881" x2="111.21450174828335" y1="-142.76477801219704" y2="-132.43512575179233" stroke-width="5" stroke="#ff0505" stroke-linecap="round"></line><line x1="377.5441540086881" x2="367.21450174828334" y1="-142.76477801219704" y2="-132.43512575179233" stroke-width="5" stroke="#ff0505" stroke-linecap="round"></line><line x1="633.5441540086881" x2="623.2145017482834" y1="-142.76477801219704" y2="-132.43512575179233" stroke-width="5" stroke="#ff0505" stroke-linecap="round"></line><line x1="121.5441540086881" x2="111.21450174828335" y1="113.23522198780294" y2="123.56487424820769" stroke-width="5" stroke="#ff0505" stroke-linecap="round"></line><line x1="377.5441540086881" x2="367.21450174828334" y1="113.23522198780294" y2="123.56487424820769" stroke-width="5" stroke="#ff0505" stroke-linecap="round"></line><line x1="633.5441540086881" x2="623.2145017482834" y1="113.23522198780294" y2="123.56487424820769" stroke-width="5" stroke="#ff0505" stroke-linecap="round"></line><line x1="40.33518845854532" x2="22.56647929445755" y1="196.4220894106836" y2="214.19079857477135" stroke-width="5" stroke="#ff0505" stroke-linecap="round"></line><line x1="40.33518845854532" x2="22.56647929445755" y1="-315.5779105893164" y2="-297.80920142522865" stroke-width="5" stroke="#ff0505" stroke-linecap="round"></line><line x1="296.3351884585453" x2="278.56647929445757" y1="-315.5779105893164" y2="-297.80920142522865" stroke-width="5" stroke="#ff0505" stroke-linecap="round"></line><line x1="552.3351884585453" x2="534.5664792944575" y1="-315.5779105893164" y2="-297.80920142522865" stroke-width="5" stroke="#ff0505" stroke-linecap="round"></line><line x1="40.33518845854532" x2="22.56647929445755" y1="-59.57791058931639" y2="-41.80920142522865" stroke-width="5" stroke="#ff0505" stroke-linecap="round"></line><line x1="296.3351884585453" x2="278.56647929445757" y1="-59.57791058931639" y2="-41.80920142522865" stroke-width="5" stroke="#ff0505" stroke-linecap="round"></line><line x1="552.3351884585453" x2="534.5664792944575" y1="-59.57791058931639" y2="-41.80920142522865" stroke-width="5" stroke="#ff0505" stroke-linecap="round"></line><line x1="40.33518845854532" x2="22.56647929445755" y1="196.4220894106836" y2="214.19079857477135" stroke-width="5" stroke="#ff0505" stroke-linecap="round"></line><line x1="296.3351884585453" x2="278.56647929445757" y1="196.4220894106836" y2="214.19079857477135" stroke-width="5" stroke="#ff0505" stroke-linecap="round"></line><line x1="552.3351884585453" x2="534.5664792944575" y1="196.4220894106836" y2="214.19079857477135" stroke-width="5" stroke="#ff0505" stroke-linecap="round"></line><line x1="106.8212520781175" x2="99.6488327372554" y1="125.48463495151255" y2="132.65705429237462" stroke-width="5" stroke="#ff0505" stroke-linecap="round"></line><line x1="106.8212520781175" x2="99.6488327372554" y1="-386.51536504848747" y2="-379.3429457076254" stroke-width="5" stroke="#ff0505" stroke-linecap="round"></line><line x1="362.8212520781175" x2="355.6488327372554" y1="-386.51536504848747" y2="-379.3429457076254" stroke-width="5" stroke="#ff0505" stroke-linecap="round"></line><line x1="618.8212520781175" x2="611.6488327372554" y1="-386.51536504848747" y2="-379.3429457076254" stroke-width="5" stroke="#ff0505" stroke-linecap="round"></line><line x1="106.8212520781175" x2="99.6488327372554" y1="-130.51536504848747" y2="-123.34294570762538" stroke-width="5" stroke="#ff0505" stroke-linecap="round"></line><line x1="362.8212520781175" x2="355.6488327372554" y1="-130.51536504848747" y2="-123.34294570762538" stroke-width="5" stroke="#ff0505" stroke-linecap="round"></line><line x1="618.8212520781175" x2="611.6488327372554" y1="-130.51536504848747" y2="-123.34294570762538" stroke-width="5" stroke="#ff0505" stroke-linecap="round"></line><line x1="106.8212520781175" x2="99.6488327372554" y1="125.48463495151255" y2="132.65705429237462" stroke-width="5" stroke="#ff0505" stroke-linecap="round"></line><line x1="362.8212520781175" x2="355.6488327372554" y1="125.48463495151255" y2="132.65705429237462" stroke-width="5" stroke="#ff0505" stroke-linecap="round"></line><line x1="618.8212520781175" x2="611.6488327372554" y1="125.48463495151255" y2="132.65705429237462" stroke-width="5" stroke="#ff0505" stroke-linecap="round"></line><line x1="57.37712405981251" x2="44.26830723137402" y1="35.8578374932108" y2="48.966654321649294" stroke-width="5" stroke="#ff0505" stroke-linecap="round"></line><line x1="57.37712405981251" x2="44.26830723137402" y1="-476.1421625067892" y2="-463.0333456783507" stroke-width="5" stroke="#ff0505" stroke-linecap="round"></line><line x1="313.3771240598125" x2="300.268307231374" y1="-476.1421625067892" y2="-463.0333456783507" stroke-width="5" stroke="#ff0505" stroke-linecap="round"></line><line x1="569.3771240598126" x2="556.268307231374" y1="-476.1421625067892" y2="-463.0333456783507" stroke-width="5" stroke="#ff0505" stroke-linecap="round"></line><line x1="57.37712405981251" x2="44.26830723137402" y1="-220.1421625067892" y2="-207.0333456783507" stroke-width="5" stroke="#ff0505" stroke-linecap="round"></line><line x1="313.3771240598125" x2="300.268307231374" y1="-220.1421625067892" y2="-207.0333456783507" stroke-width="5" stroke="#ff0505" stroke-linecap="round"></line><line x1="569.3771240598126" x2="556.268307231374" y1="-220.1421625067892" y2="-207.0333456783507" stroke-width="5" stroke="#ff0505" stroke-linecap="round"></line><line x1="57.37712405981251" x2="44.26830723137402" y1="35.8578374932108" y2="48.966654321649294" stroke-width="5" stroke="#ff0505" stroke-linecap="round"></line><line x1="313.3771240598125" x2="300.268307231374" y1="35.8578374932108" y2="48.966654321649294" stroke-width="5" stroke="#ff0505" stroke-linecap="round"></line><line x1="569.3771240598126" x2="556.268307231374" y1="35.8578374932108" y2="48.966654321649294" stroke-width="5" stroke="#ff0505" stroke-linecap="round"></line><line x1="86.99360309075813" x2="78.73094789514768" y1="124.84055377106505" y2="133.10320896667548" stroke-width="5" stroke="#ff0505" stroke-linecap="round"></line><line x1="86.99360309075813" x2="78.73094789514768" y1="-387.15944622893494" y2="-378.8967910333245" stroke-width="5" stroke="#ff0505" stroke-linecap="round"></line><line x1="342.99360309075814" x2="334.73094789514766" y1="-387.15944622893494" y2="-378.8967910333245" stroke-width="5" stroke="#ff0505" stroke-linecap="round"></line><line x1="598.9936030907581" x2="590.7309478951477" y1="-387.15944622893494" y2="-378.8967910333245" stroke-width="5" stroke="#ff0505" stroke-linecap="round"></line><line x1="86.99360309075813" x2="78.73094789514768" y1="-131.15944622893494" y2="-122.89679103332452" stroke-width="5" stroke="#ff0505" stroke-linecap="round"></line><line x1="342.99360309075814" x2="334.73094789514766" y1="-131.15944622893494" y2="-122.89679103332452" stroke-width="5" stroke="#ff0505" stroke-linecap="round"></line><line x1="598.9936030907581" x2="590.7309478951477" y1="-131.15944622893494" y2="-122.89679103332452" stroke-width="5" stroke="#ff0505" stroke-linecap="round"></line><line x1="86.99360309075813" x2="78.73094789514768" y1="124.84055377106505" y2="133.10320896667548" stroke-width="5" stroke="#ff0505" stroke-linecap="round"></line><line x1="342.99360309075814" x2="334.73094789514766" y1="124.84055377106505" y2="133.10320896667548" stroke-width="5" stroke="#ff0505" stroke-linecap="round"></line><line x1="598.9936030907581" x2="590.7309478951477" y1="124.84055377106505" y2="133.10320896667548" stroke-width="5" stroke="#ff0505" stroke-linecap="round"></line><line x1="75.92132879552625" x2="51.23169573014999" y1="140.9686792890386" y2="165.65831235441485" stroke-width="5" stroke="#ff0505" stroke-linecap="round"></line><line x1="75.92132879552625" x2="51.23169573014999" y1="-371.0313207109614" y2="-346.3416876455851" stroke-width="5" stroke="#ff0505" stroke-linecap="round"></line><line x1="331.9213287955263" x2="307.23169573014997" y1="-371.0313207109614" y2="-346.3416876455851" stroke-width="5" stroke="#ff0505" stroke-linecap="round"></line><line x1="587.9213287955263" x2="563.23169573015" y1="-371.0313207109614" y2="-346.3416876455851" stroke-width="5" stroke="#ff0505" stroke-linecap="round"></line><line x1="75.92132879552625" x2="51.23169573014999" y1="-115.03132071096141" y2="-90.34168764558515" stroke-width="5" stroke="#ff0505" stroke-linecap="round"></line><line x1="331.9213287955263" x2="307.23169573014997" y1="-115.03132071096141" y2="-90.34168764558515" stroke-width="5" stroke="#ff0505" stroke-linecap="round"></line><line x1="587.9213287955263" x2="563.23169573015" y1="-115.03132071096141" y2="-90.34168764558515" stroke-width="5" stroke="#ff0505" stroke-linecap="round"></line><line x1="75.92132879552625" x2="51.23169573014999" y1="140.9686792890386" y2="165.65831235441485" stroke-width="5" stroke="#ff0505" stroke-linecap="round"></line><line x1="331.9213287955263" x2="307.23169573014997" y1="140.9686792890386" y2="165.65831235441485" stroke-width="5" stroke="#ff0505" stroke-linecap="round"></line><line x1="587.9213287955263" x2="563.23169573015" y1="140.9686792890386" y2="165.65831235441485" stroke-width="5" stroke="#ff0505" stroke-linecap="round"></line><line x1="128.87000504350397" x2="103.71930537100701" y1="174.33312382836857" y2="199.48382350086553" stroke-width="5" stroke="#ff0505" stroke-linecap="round"></line><line x1="128.87000504350397" x2="103.71930537100701" y1="-337.66687617163143" y2="-312.5161764991345" stroke-width="5" stroke="#ff0505" stroke-linecap="round"></line><line x1="384.87000504350397" x2="359.719305371007" y1="-337.66687617163143" y2="-312.5161764991345" stroke-width="5" stroke="#ff0505" stroke-linecap="round"></line><line x1="640.870005043504" x2="615.7193053710071" y1="-337.66687617163143" y2="-312.5161764991345" stroke-width="5" stroke="#ff0505" stroke-linecap="round"></line><line x1="128.87000504350397" x2="103.71930537100701" y1="-81.66687617163143" y2="-56.516176499134474" stroke-width="5" stroke="#ff0505" stroke-linecap="round"></line><line x1="384.87000504350397" x2="359.719305371007" y1="-81.66687617163143" y2="-56.516176499134474" stroke-width="5" stroke="#ff0505" stroke-linecap="round"></line><line x1="640.870005043504" x2="615.7193053710071" y1="-81.66687617163143" y2="-56.516176499134474" stroke-width="5" stroke="#ff0505" stroke-linecap="round"></line><line x1="128.87000504350397" x2="103.71930537100701" y1="174.33312382836857" y2="199.48382350086553" stroke-width="5" stroke="#ff0505" stroke-linecap="round"></line><line x1="384.87000504350397" x2="359.719305371007" y1="174.33312382836857" y2="199.48382350086553" stroke-width="5" stroke="#ff0505" stroke-linecap="round"></line><line x1="640.870005043504" x2="615.7193053710071" y1="174.33312382836857" y2="199.48382350086553" stroke-width="5" stroke="#ff0505" stroke-linecap="round"></line><line x1="153.14203512046166" x2="126.26618146512513" y1="173.41770822750976" y2="200.2935618828463" stroke-width="5" stroke="#ff0505" stroke-linecap="round"></line><line x1="153.14203512046166" x2="126.26618146512513" y1="-338.58229177249024" y2="-311.7064381171537" stroke-width="5" stroke="#ff0505" stroke-linecap="round"></line><line x1="409.1420351204616" x2="382.2661814651251" y1="-338.58229177249024" y2="-311.7064381171537" stroke-width="5" stroke="#ff0505" stroke-linecap="round"></line><line x1="665.1420351204616" x2="638.2661814651251" y1="-338.58229177249024" y2="-311.7064381171537" stroke-width="5" stroke="#ff0505" stroke-linecap="round"></line><line x1="153.14203512046166" x2="126.26618146512513" y1="-82.58229177249024" y2="-55.70643811715371" stroke-width="5" stroke="#ff0505" stroke-linecap="round"></line><line x1="409.1420351204616" x2="382.2661814651251" y1="-82.58229177249024" y2="-55.70643811715371" stroke-width="5" stroke="#ff0505" stroke-linecap="round"></line><line x1="665.1420351204616" x2="638.2661814651251" y1="-82.58229177249024" y2="-55.70643811715371" stroke-width="5" stroke="#ff0505" stroke-linecap="round"></line><line x1="153.14203512046166" x2="126.26618146512513" y1="173.41770822750976" y2="200.2935618828463" stroke-width="5" stroke="#ff0505" stroke-linecap="round"></line><line x1="409.1420351204616" x2="382.2661814651251" y1="173.41770822750976" y2="200.2935618828463" stroke-width="5" stroke="#ff0505" stroke-linecap="round"></line><line x1="665.1420351204616" x2="638.2661814651251" y1="173.41770822750976" y2="200.2935618828463" stroke-width="5" stroke="#ff0505" stroke-linecap="round"></line><line x1="230.45159487793833" x2="214.7189200700349" y1="214.57686947809836" y2="230.3095442860018" stroke-width="5" stroke="#ff0505" stroke-linecap="round"></line><line x1="230.45159487793833" x2="214.7189200700349" y1="-297.4231305219016" y2="-281.6904557139982" stroke-width="5" stroke="#ff0505" stroke-linecap="round"></line><line x1="486.4515948779383" x2="470.71892007003487" y1="-297.4231305219016" y2="-281.6904557139982" stroke-width="5" stroke="#ff0505" stroke-linecap="round"></line><line x1="742.4515948779383" x2="726.7189200700349" y1="-297.4231305219016" y2="-281.6904557139982" stroke-width="5" stroke="#ff0505" stroke-linecap="round"></line><line x1="230.45159487793833" x2="214.7189200700349" y1="-41.42313052190164" y2="-25.690455713998205" stroke-width="5" stroke="#ff0505" stroke-linecap="round"></line><line x1="486.4515948779383" x2="470.71892007003487" y1="-41.42313052190164" y2="-25.690455713998205" stroke-width="5" stroke="#ff0505" stroke-linecap="round"></line><line x1="742.4515948779383" x2="726.7189200700349" y1="-41.42313052190164" y2="-25.690455713998205" stroke-width="5" stroke="#ff0505" stroke-linecap="round"></line><line x1="230.45159487793833" x2="214.7189200700349" y1="214.57686947809836" y2="230.3095442860018" stroke-width="5" stroke="#ff0505" stroke-linecap="round"></line><line x1="486.4515948779383" x2="470.71892007003487" y1="214.57686947809836" y2="230.3095442860018" stroke-width="5" stroke="#ff0505" stroke-linecap="round"></line><line x1="742.4515948779383" x2="726.7189200700349" y1="214.57686947809836" y2="230.3095442860018" stroke-width="5" stroke="#ff0505" stroke-linecap="round"></line><line x1="27.320441174339724" x2="-0.648970039984281" y1="161.01671345280187" y2="188.98612466712586" stroke-width="5" stroke="#ff0505" stroke-linecap="round"></line><line x1="27.320441174339724" x2="-0.648970039984281" y1="-350.98328654719813" y2="-323.01387533287414" stroke-width="5" stroke="#ff0505" stroke-linecap="round"></line><line x1="283.32044117433975" x2="255.35102996001572" y1="-350.98328654719813" y2="-323.01387533287414" stroke-width="5" stroke="#ff0505" stroke-linecap="round"></line><line x1="539.3204411743397" x2="511.3510299600157" y1="-350.98328654719813" y2="-323.01387533287414" stroke-width="5" stroke="#ff0505" stroke-linecap="round"></line><line x1="27.320441174339724" x2="-0.648970039984281" y1="-94.98328654719813" y2="-67.01387533287414" stroke-width="5" stroke="#ff0505" stroke-linecap="round"></line><line x1="283.32044117433975" x2="255.35102996001572" y1="-94.98328654719813" y2="-67.01387533287414" stroke-width="5" stroke="#ff0505" stroke-linecap="round"></line><line x1="539.3204411743397" x2="511.3510299600157" y1="-94.98328654719813" y2="-67.01387533287414" stroke-width="5" stroke="#ff0505" stroke-linecap="round"></line><line x1="27.320441174339724" x2="-0.648970039984281" y1="161.01671345280187" y2="188.98612466712586" stroke-width="5" stroke="#ff0505" stroke-linecap="round"></line><line x1="283.32044117433975" x2="255.35102996001572" y1="161.01671345280187" y2="188.98612466712586" stroke-width="5" stroke="#ff0505" stroke-linecap="round"></line><line x1="539.3204411743397" x2="511.3510299600157" y1="161.01671345280187" y2="188.98612466712586" stroke-width="5" stroke="#ff0505" stroke-linecap="round"></line>
  <animateTransform attributeName="transform" type="translate" values="0 0;-256 256" keyTimes="0;1" repeatCount="indefinite" dur="1.6666666666666665s"></animateTransform>
</g></g>
</svg>