<svg xmlns="http://www.w3.org/2000/svg"
     xmlns:xlink="http://www.w3.org/1999/xlink"
     style="margin:auto;background:#060606;display:block;z-index:1;position:relative"
     width="168" height="168" preserveAspectRatio="xMidYMid" viewBox="0 0 168 168">

<g transform="scale(0.66)"><g>
  <line x1="219.09671432339033" x2="196.6914660593981" y1="85.8056859158955" y2="108.21093417988776" stroke-width="6" stroke="#ff0505" stroke-linecap="round"></line><line x1="219.09671432339033" x2="196.6914660593981" y1="-426.1943140841045" y2="-403.7890658201122" stroke-width="6" stroke="#ff0505" stroke-linecap="round"></line><line x1="475.0967143233903" x2="452.69146605939807" y1="-426.1943140841045" y2="-403.7890658201122" stroke-width="6" stroke="#ff0505" stroke-linecap="round"></line><line x1="731.0967143233903" x2="708.6914660593981" y1="-426.1943140841045" y2="-403.7890658201122" stroke-width="6" stroke="#ff0505" stroke-linecap="round"></line><line x1="219.09671432339033" x2="196.6914660593981" y1="-170.19431408410452" y2="-147.78906582011223" stroke-width="6" stroke="#ff0505" stroke-linecap="round"></line><line x1="475.0967143233903" x2="452.69146605939807" y1="-170.19431408410452" y2="-147.78906582011223" stroke-width="6" stroke="#ff0505" stroke-linecap="round"></line><line x1="731.0967143233903" x2="708.6914660593981" y1="-170.19431408410452" y2="-147.78906582011223" stroke-width="6" stroke="#ff0505" stroke-linecap="round"></line><line x1="219.09671432339033" x2="196.6914660593981" y1="85.8056859158955" y2="108.21093417988776" stroke-width="6" stroke="#ff0505" stroke-linecap="round"></line><line x1="475.0967143233903" x2="452.69146605939807" y1="85.8056859158955" y2="108.21093417988776" stroke-width="6" stroke="#ff0505" stroke-linecap="round"></line><line x1="731.0967143233903" x2="708.6914660593981" y1="85.8056859158955" y2="108.21093417988776" stroke-width="6" stroke="#ff0505" stroke-linecap="round"></line><line x1="258.40613850011596" x2="244.72493076225007" y1="245.68915184589426" y2="259.37035958376015" stroke-width="6" stroke="#ff0505" stroke-linecap="round"></line><line x1="258.40613850011596" x2="244.72493076225007" y1="-266.31084815410577" y2="-252.62964041623985" stroke-width="6" stroke="#ff0505" stroke-linecap="round"></line><line x1="514.406138500116" x2="500.7249307622501" y1="-266.31084815410577" y2="-252.62964041623985" stroke-width="6" stroke="#ff0505" stroke-linecap="round"></line><line x1="770.406138500116" x2="756.7249307622501" y1="-266.31084815410577" y2="-252.62964041623985" stroke-width="6" stroke="#ff0505" stroke-linecap="round"></line><line x1="258.40613850011596" x2="244.72493076225007" y1="-10.310848154105742" y2="3.3703595837601483" stroke-width="6" stroke="#ff0505" stroke-linecap="round"></line><line x1="514.406138500116" x2="500.7249307622501" y1="-10.310848154105742" y2="3.3703595837601483" stroke-width="6" stroke="#ff0505" stroke-linecap="round"></line><line x1="770.406138500116" x2="756.7249307622501" y1="-10.310848154105742" y2="3.3703595837601483" stroke-width="6" stroke="#ff0505" stroke-linecap="round"></line><line x1="258.40613850011596" x2="244.72493076225007" y1="245.68915184589426" y2="259.37035958376015" stroke-width="6" stroke="#ff0505" stroke-linecap="round"></line><line x1="514.406138500116" x2="500.7249307622501" y1="245.68915184589426" y2="259.37035958376015" stroke-width="6" stroke="#ff0505" stroke-linecap="round"></line><line x1="770.406138500116" x2="756.7249307622501" y1="245.68915184589426" y2="259.37035958376015" stroke-width="6" stroke="#ff0505" stroke-linecap="round"></line><line x1="2.406138500115958" x2="-11.275069237749932" y1="245.68915184589426" y2="259.37035958376015" stroke-width="6" stroke="#ff0505" stroke-linecap="round"></line><line x1="223.28179217302528" x2="202.18257344209036" y1="29.552305294182805" y2="50.65152402511775" stroke-width="6" stroke="#ff0505" stroke-linecap="round"></line><line x1="223.28179217302528" x2="202.18257344209036" y1="-482.4476947058172" y2="-461.34847597488226" stroke-width="6" stroke="#ff0505" stroke-linecap="round"></line><line x1="479.2817921730253" x2="458.18257344209036" y1="-482.4476947058172" y2="-461.34847597488226" stroke-width="6" stroke="#ff0505" stroke-linecap="round"></line><line x1="735.2817921730252" x2="714.1825734420904" y1="-482.4476947058172" y2="-461.34847597488226" stroke-width="6" stroke="#ff0505" stroke-linecap="round"></line><line x1="223.28179217302528" x2="202.18257344209036" y1="-226.44769470581718" y2="-205.34847597488226" stroke-width="6" stroke="#ff0505" stroke-linecap="round"></line><line x1="479.2817921730253" x2="458.18257344209036" y1="-226.44769470581718" y2="-205.34847597488226" stroke-width="6" stroke="#ff0505" stroke-linecap="round"></line><line x1="735.2817921730252" x2="714.1825734420904" y1="-226.44769470581718" y2="-205.34847597488226" stroke-width="6" stroke="#ff0505" stroke-linecap="round"></line><line x1="223.28179217302528" x2="202.18257344209036" y1="29.552305294182805" y2="50.65152402511775" stroke-width="6" stroke="#ff0505" stroke-linecap="round"></line><line x1="479.2817921730253" x2="458.18257344209036" y1="29.552305294182805" y2="50.65152402511775" stroke-width="6" stroke="#ff0505" stroke-linecap="round"></line><line x1="735.2817921730252" x2="714.1825734420904" y1="29.552305294182805" y2="50.65152402511775" stroke-width="6" stroke="#ff0505" stroke-linecap="round"></line><line x1="260.15714583212394" x2="243.66834157691167" y1="62.4481814458242" y2="78.93698570103648" stroke-width="6" stroke="#ff0505" stroke-linecap="round"></line><line x1="260.15714583212394" x2="243.66834157691167" y1="-449.5518185541758" y2="-433.06301429896354" stroke-width="6" stroke="#ff0505" stroke-linecap="round"></line><line x1="516.1571458321239" x2="499.66834157691164" y1="-449.5518185541758" y2="-433.06301429896354" stroke-width="6" stroke="#ff0505" stroke-linecap="round"></line><line x1="772.1571458321239" x2="755.6683415769116" y1="-449.5518185541758" y2="-433.06301429896354" stroke-width="6" stroke="#ff0505" stroke-linecap="round"></line><line x1="260.15714583212394" x2="243.66834157691167" y1="-193.5518185541758" y2="-177.06301429896354" stroke-width="6" stroke="#ff0505" stroke-linecap="round"></line><line x1="516.1571458321239" x2="499.66834157691164" y1="-193.5518185541758" y2="-177.06301429896354" stroke-width="6" stroke="#ff0505" stroke-linecap="round"></line><line x1="772.1571458321239" x2="755.6683415769116" y1="-193.5518185541758" y2="-177.06301429896354" stroke-width="6" stroke="#ff0505" stroke-linecap="round"></line><line x1="260.15714583212394" x2="243.66834157691167" y1="62.4481814458242" y2="78.93698570103648" stroke-width="6" stroke="#ff0505" stroke-linecap="round"></line><line x1="516.1571458321239" x2="499.66834157691164" y1="62.4481814458242" y2="78.93698570103648" stroke-width="6" stroke="#ff0505" stroke-linecap="round"></line><line x1="772.1571458321239" x2="755.6683415769116" y1="62.4481814458242" y2="78.93698570103648" stroke-width="6" stroke="#ff0505" stroke-linecap="round"></line><line x1="4.157145832123945" x2="-12.331658423088328" y1="62.4481814458242" y2="78.93698570103648" stroke-width="6" stroke="#ff0505" stroke-linecap="round"></line><line x1="130.19684789719253" x2="115.54849725915494" y1="233.89744657084708" y2="248.54579720888466" stroke-width="6" stroke="#ff0505" stroke-linecap="round"></line><line x1="130.19684789719253" x2="115.54849725915494" y1="-278.1025534291529" y2="-263.45420279111534" stroke-width="6" stroke="#ff0505" stroke-linecap="round"></line><line x1="386.1968478971925" x2="371.54849725915494" y1="-278.1025534291529" y2="-263.45420279111534" stroke-width="6" stroke="#ff0505" stroke-linecap="round"></line><line x1="642.1968478971926" x2="627.5484972591549" y1="-278.1025534291529" y2="-263.45420279111534" stroke-width="6" stroke="#ff0505" stroke-linecap="round"></line><line x1="130.19684789719253" x2="115.54849725915494" y1="-22.10255342915292" y2="-7.4542027911153355" stroke-width="6" stroke="#ff0505" stroke-linecap="round"></line><line x1="386.1968478971925" x2="371.54849725915494" y1="-22.10255342915292" y2="-7.4542027911153355" stroke-width="6" stroke="#ff0505" stroke-linecap="round"></line><line x1="642.1968478971926" x2="627.5484972591549" y1="-22.10255342915292" y2="-7.4542027911153355" stroke-width="6" stroke="#ff0505" stroke-linecap="round"></line><line x1="130.19684789719253" x2="115.54849725915494" y1="233.89744657084708" y2="248.54579720888466" stroke-width="6" stroke="#ff0505" stroke-linecap="round"></line><line x1="386.1968478971925" x2="371.54849725915494" y1="233.89744657084708" y2="248.54579720888466" stroke-width="6" stroke="#ff0505" stroke-linecap="round"></line><line x1="642.1968478971926" x2="627.5484972591549" y1="233.89744657084708" y2="248.54579720888466" stroke-width="6" stroke="#ff0505" stroke-linecap="round"></line><line x1="96.77015988094504" x2="75.66573890938932" y1="125.4255291654357" y2="146.52995013699143" stroke-width="6" stroke="#ff0505" stroke-linecap="round"></line><line x1="96.77015988094504" x2="75.66573890938932" y1="-386.5744708345643" y2="-365.47004986300857" stroke-width="6" stroke="#ff0505" stroke-linecap="round"></line><line x1="352.770159880945" x2="331.66573890938935" y1="-386.5744708345643" y2="-365.47004986300857" stroke-width="6" stroke="#ff0505" stroke-linecap="round"></line><line x1="608.770159880945" x2="587.6657389093893" y1="-386.5744708345643" y2="-365.47004986300857" stroke-width="6" stroke="#ff0505" stroke-linecap="round"></line><line x1="96.77015988094504" x2="75.66573890938932" y1="-130.5744708345643" y2="-109.47004986300857" stroke-width="6" stroke="#ff0505" stroke-linecap="round"></line><line x1="352.770159880945" x2="331.66573890938935" y1="-130.5744708345643" y2="-109.47004986300857" stroke-width="6" stroke="#ff0505" stroke-linecap="round"></line><line x1="608.770159880945" x2="587.6657389093893" y1="-130.5744708345643" y2="-109.47004986300857" stroke-width="6" stroke="#ff0505" stroke-linecap="round"></line><line x1="96.77015988094504" x2="75.66573890938932" y1="125.4255291654357" y2="146.52995013699143" stroke-width="6" stroke="#ff0505" stroke-linecap="round"></line><line x1="352.770159880945" x2="331.66573890938935" y1="125.4255291654357" y2="146.52995013699143" stroke-width="6" stroke="#ff0505" stroke-linecap="round"></line><line x1="608.770159880945" x2="587.6657389093893" y1="125.4255291654357" y2="146.52995013699143" stroke-width="6" stroke="#ff0505" stroke-linecap="round"></line><line x1="64.49051425423146" x2="46.38198673811122" y1="143.6973865076141" y2="161.80591402373437" stroke-width="6" stroke="#ff0505" stroke-linecap="round"></line><line x1="64.49051425423146" x2="46.38198673811122" y1="-368.3026134923859" y2="-350.1940859762656" stroke-width="6" stroke="#ff0505" stroke-linecap="round"></line><line x1="320.49051425423147" x2="302.3819867381112" y1="-368.3026134923859" y2="-350.1940859762656" stroke-width="6" stroke="#ff0505" stroke-linecap="round"></line><line x1="576.4905142542315" x2="558.3819867381112" y1="-368.3026134923859" y2="-350.1940859762656" stroke-width="6" stroke="#ff0505" stroke-linecap="round"></line><line x1="64.49051425423146" x2="46.38198673811122" y1="-112.30261349238589" y2="-94.19408597626563" stroke-width="6" stroke="#ff0505" stroke-linecap="round"></line><line x1="320.49051425423147" x2="302.3819867381112" y1="-112.30261349238589" y2="-94.19408597626563" stroke-width="6" stroke="#ff0505" stroke-linecap="round"></line><line x1="576.4905142542315" x2="558.3819867381112" y1="-112.30261349238589" y2="-94.19408597626563" stroke-width="6" stroke="#ff0505" stroke-linecap="round"></line><line x1="64.49051425423146" x2="46.38198673811122" y1="143.6973865076141" y2="161.80591402373437" stroke-width="6" stroke="#ff0505" stroke-linecap="round"></line><line x1="320.49051425423147" x2="302.3819867381112" y1="143.6973865076141" y2="161.80591402373437" stroke-width="6" stroke="#ff0505" stroke-linecap="round"></line><line x1="576.4905142542315" x2="558.3819867381112" y1="143.6973865076141" y2="161.80591402373437" stroke-width="6" stroke="#ff0505" stroke-linecap="round"></line>
  <animateTransform attributeName="transform" type="translate" values="0 0;-256 256" keyTimes="0;1" repeatCount="indefinite" dur="14.285714285714285s"></animateTransform>
</g><g>
  <line x1="98.94235499256173" x2="91.89510951870373" y1="10.931511370824849" y2="17.978756844682852" stroke-width="6" stroke="#dc143c" stroke-linecap="round"></line><line x1="98.94235499256173" x2="91.89510951870373" y1="-501.06848862917514" y2="-494.02124315531717" stroke-width="6" stroke="#dc143c" stroke-linecap="round"></line><line x1="354.9423549925617" x2="347.89510951870375" y1="-501.06848862917514" y2="-494.02124315531717" stroke-width="6" stroke="#dc143c" stroke-linecap="round"></line><line x1="610.9423549925617" x2="603.8951095187037" y1="-501.06848862917514" y2="-494.02124315531717" stroke-width="6" stroke="#dc143c" stroke-linecap="round"></line><line x1="98.94235499256173" x2="91.89510951870373" y1="-245.06848862917516" y2="-238.02124315531714" stroke-width="6" stroke="#dc143c" stroke-linecap="round"></line><line x1="354.9423549925617" x2="347.89510951870375" y1="-245.06848862917516" y2="-238.02124315531714" stroke-width="6" stroke="#dc143c" stroke-linecap="round"></line><line x1="610.9423549925617" x2="603.8951095187037" y1="-245.06848862917516" y2="-238.02124315531714" stroke-width="6" stroke="#dc143c" stroke-linecap="round"></line><line x1="98.94235499256173" x2="91.89510951870373" y1="10.931511370824849" y2="17.978756844682852" stroke-width="6" stroke="#dc143c" stroke-linecap="round"></line><line x1="354.9423549925617" x2="347.89510951870375" y1="10.931511370824849" y2="17.978756844682852" stroke-width="6" stroke="#dc143c" stroke-linecap="round"></line><line x1="610.9423549925617" x2="603.8951095187037" y1="10.931511370824849" y2="17.978756844682852" stroke-width="6" stroke="#dc143c" stroke-linecap="round"></line><line x1="223.73595240983025" x2="204.4840279796232" y1="174.52391917964266" y2="193.77584360984972" stroke-width="6" stroke="#dc143c" stroke-linecap="round"></line><line x1="223.73595240983025" x2="204.4840279796232" y1="-337.4760808203573" y2="-318.22415639015026" stroke-width="6" stroke="#dc143c" stroke-linecap="round"></line><line x1="479.73595240983025" x2="460.4840279796232" y1="-337.4760808203573" y2="-318.22415639015026" stroke-width="6" stroke="#dc143c" stroke-linecap="round"></line><line x1="735.7359524098302" x2="716.4840279796232" y1="-337.4760808203573" y2="-318.22415639015026" stroke-width="6" stroke="#dc143c" stroke-linecap="round"></line><line x1="223.73595240983025" x2="204.4840279796232" y1="-81.47608082035734" y2="-62.224156390150284" stroke-width="6" stroke="#dc143c" stroke-linecap="round"></line><line x1="479.73595240983025" x2="460.4840279796232" y1="-81.47608082035734" y2="-62.224156390150284" stroke-width="6" stroke="#dc143c" stroke-linecap="round"></line><line x1="735.7359524098302" x2="716.4840279796232" y1="-81.47608082035734" y2="-62.224156390150284" stroke-width="6" stroke="#dc143c" stroke-linecap="round"></line><line x1="223.73595240983025" x2="204.4840279796232" y1="174.52391917964266" y2="193.77584360984972" stroke-width="6" stroke="#dc143c" stroke-linecap="round"></line><line x1="479.73595240983025" x2="460.4840279796232" y1="174.52391917964266" y2="193.77584360984972" stroke-width="6" stroke="#dc143c" stroke-linecap="round"></line><line x1="735.7359524098302" x2="716.4840279796232" y1="174.52391917964266" y2="193.77584360984972" stroke-width="6" stroke="#dc143c" stroke-linecap="round"></line><line x1="121.50265118294035" x2="101.27077068129492" y1="105.39050895081894" y2="125.62238945246438" stroke-width="6" stroke="#dc143c" stroke-linecap="round"></line><line x1="121.50265118294035" x2="101.27077068129492" y1="-406.6094910491811" y2="-386.3776105475356" stroke-width="6" stroke="#dc143c" stroke-linecap="round"></line><line x1="377.5026511829403" x2="357.27077068129495" y1="-406.6094910491811" y2="-386.3776105475356" stroke-width="6" stroke="#dc143c" stroke-linecap="round"></line><line x1="633.5026511829403" x2="613.270770681295" y1="-406.6094910491811" y2="-386.3776105475356" stroke-width="6" stroke="#dc143c" stroke-linecap="round"></line><line x1="121.50265118294035" x2="101.27077068129492" y1="-150.60949104918106" y2="-130.37761054753562" stroke-width="6" stroke="#dc143c" stroke-linecap="round"></line><line x1="377.5026511829403" x2="357.27077068129495" y1="-150.60949104918106" y2="-130.37761054753562" stroke-width="6" stroke="#dc143c" stroke-linecap="round"></line><line x1="633.5026511829403" x2="613.270770681295" y1="-150.60949104918106" y2="-130.37761054753562" stroke-width="6" stroke="#dc143c" stroke-linecap="round"></line><line x1="121.50265118294035" x2="101.27077068129492" y1="105.39050895081894" y2="125.62238945246438" stroke-width="6" stroke="#dc143c" stroke-linecap="round"></line><line x1="377.5026511829403" x2="357.27077068129495" y1="105.39050895081894" y2="125.62238945246438" stroke-width="6" stroke="#dc143c" stroke-linecap="round"></line><line x1="633.5026511829403" x2="613.270770681295" y1="105.39050895081894" y2="125.62238945246438" stroke-width="6" stroke="#dc143c" stroke-linecap="round"></line><line x1="103.56689981553045" x2="86.7386379605057" y1="67.77992236633135" y2="84.6081842213561" stroke-width="6" stroke="#ff0505" stroke-linecap="round"></line><line x1="103.56689981553045" x2="86.7386379605057" y1="-444.22007763366867" y2="-427.3918157786439" stroke-width="6" stroke="#ff0505" stroke-linecap="round"></line><line x1="359.56689981553046" x2="342.7386379605057" y1="-444.22007763366867" y2="-427.3918157786439" stroke-width="6" stroke="#ff0505" stroke-linecap="round"></line><line x1="615.5668998155304" x2="598.7386379605057" y1="-444.22007763366867" y2="-427.3918157786439" stroke-width="6" stroke="#ff0505" stroke-linecap="round"></line><line x1="103.56689981553045" x2="86.7386379605057" y1="-188.22007763366867" y2="-171.3918157786439" stroke-width="6" stroke="#ff0505" stroke-linecap="round"></line><line x1="359.56689981553046" x2="342.7386379605057" y1="-188.22007763366867" y2="-171.3918157786439" stroke-width="6" stroke="#ff0505" stroke-linecap="round"></line><line x1="615.5668998155304" x2="598.7386379605057" y1="-188.22007763366867" y2="-171.3918157786439" stroke-width="6" stroke="#ff0505" stroke-linecap="round"></line><line x1="103.56689981553045" x2="86.7386379605057" y1="67.77992236633135" y2="84.6081842213561" stroke-width="6" stroke="#ff0505" stroke-linecap="round"></line><line x1="359.56689981553046" x2="342.7386379605057" y1="67.77992236633135" y2="84.6081842213561" stroke-width="6" stroke="#ff0505" stroke-linecap="round"></line><line x1="615.5668998155304" x2="598.7386379605057" y1="67.77992236633135" y2="84.6081842213561" stroke-width="6" stroke="#ff0505" stroke-linecap="round"></line><line x1="147.6443572934682" x2="138.17035195375723" y1="58.626836619471874" y2="68.10084195918284" stroke-width="6" stroke="#dc143c" stroke-linecap="round"></line><line x1="147.6443572934682" x2="138.17035195375723" y1="-453.3731633805281" y2="-443.89915804081716" stroke-width="6" stroke="#dc143c" stroke-linecap="round"></line><line x1="403.6443572934682" x2="394.17035195375723" y1="-453.3731633805281" y2="-443.89915804081716" stroke-width="6" stroke="#dc143c" stroke-linecap="round"></line><line x1="659.6443572934681" x2="650.1703519537573" y1="-453.3731633805281" y2="-443.89915804081716" stroke-width="6" stroke="#dc143c" stroke-linecap="round"></line><line x1="147.6443572934682" x2="138.17035195375723" y1="-197.37316338052813" y2="-187.89915804081716" stroke-width="6" stroke="#dc143c" stroke-linecap="round"></line><line x1="403.6443572934682" x2="394.17035195375723" y1="-197.37316338052813" y2="-187.89915804081716" stroke-width="6" stroke="#dc143c" stroke-linecap="round"></line><line x1="659.6443572934681" x2="650.1703519537573" y1="-197.37316338052813" y2="-187.89915804081716" stroke-width="6" stroke="#dc143c" stroke-linecap="round"></line><line x1="147.6443572934682" x2="138.17035195375723" y1="58.626836619471874" y2="68.10084195918284" stroke-width="6" stroke="#dc143c" stroke-linecap="round"></line><line x1="403.6443572934682" x2="394.17035195375723" y1="58.626836619471874" y2="68.10084195918284" stroke-width="6" stroke="#dc143c" stroke-linecap="round"></line><line x1="659.6443572934681" x2="650.1703519537573" y1="58.626836619471874" y2="68.10084195918284" stroke-width="6" stroke="#dc143c" stroke-linecap="round"></line><line x1="212.35500726496267" x2="194.77770052268366" y1="8.15694266009324" y2="25.734249402372267" stroke-width="6" stroke="#ff0505" stroke-linecap="round"></line><line x1="212.35500726496267" x2="194.77770052268366" y1="-503.84305733990675" y2="-486.26575059762774" stroke-width="6" stroke="#ff0505" stroke-linecap="round"></line><line x1="468.35500726496264" x2="450.77770052268363" y1="-503.84305733990675" y2="-486.26575059762774" stroke-width="6" stroke="#ff0505" stroke-linecap="round"></line><line x1="724.3550072649626" x2="706.7777005226836" y1="-503.84305733990675" y2="-486.26575059762774" stroke-width="6" stroke="#ff0505" stroke-linecap="round"></line><line x1="212.35500726496267" x2="194.77770052268366" y1="-247.84305733990675" y2="-230.26575059762774" stroke-width="6" stroke="#ff0505" stroke-linecap="round"></line><line x1="468.35500726496264" x2="450.77770052268363" y1="-247.84305733990675" y2="-230.26575059762774" stroke-width="6" stroke="#ff0505" stroke-linecap="round"></line><line x1="724.3550072649626" x2="706.7777005226836" y1="-247.84305733990675" y2="-230.26575059762774" stroke-width="6" stroke="#ff0505" stroke-linecap="round"></line><line x1="212.35500726496267" x2="194.77770052268366" y1="8.15694266009324" y2="25.734249402372267" stroke-width="6" stroke="#ff0505" stroke-linecap="round"></line><line x1="468.35500726496264" x2="450.77770052268363" y1="8.15694266009324" y2="25.734249402372267" stroke-width="6" stroke="#ff0505" stroke-linecap="round"></line><line x1="724.3550072649626" x2="706.7777005226836" y1="8.15694266009324" y2="25.734249402372267" stroke-width="6" stroke="#ff0505" stroke-linecap="round"></line><line x1="262.3972952396809" x2="235.44798478548182" y1="222.7222404809137" y2="249.67155093511278" stroke-width="6" stroke="#dc143c" stroke-linecap="round"></line><line x1="262.3972952396809" x2="235.44798478548182" y1="-289.2777595190863" y2="-262.3284490648872" stroke-width="6" stroke="#dc143c" stroke-linecap="round"></line><line x1="518.397295239681" x2="491.4479847854818" y1="-289.2777595190863" y2="-262.3284490648872" stroke-width="6" stroke="#dc143c" stroke-linecap="round"></line><line x1="774.397295239681" x2="747.4479847854818" y1="-289.2777595190863" y2="-262.3284490648872" stroke-width="6" stroke="#dc143c" stroke-linecap="round"></line><line x1="262.3972952396809" x2="235.44798478548182" y1="-33.27775951908629" y2="-6.328449064887224" stroke-width="6" stroke="#dc143c" stroke-linecap="round"></line><line x1="518.397295239681" x2="491.4479847854818" y1="-33.27775951908629" y2="-6.328449064887224" stroke-width="6" stroke="#dc143c" stroke-linecap="round"></line><line x1="774.397295239681" x2="747.4479847854818" y1="-33.27775951908629" y2="-6.328449064887224" stroke-width="6" stroke="#dc143c" stroke-linecap="round"></line><line x1="262.3972952396809" x2="235.44798478548182" y1="222.7222404809137" y2="249.67155093511278" stroke-width="6" stroke="#dc143c" stroke-linecap="round"></line><line x1="518.397295239681" x2="491.4479847854818" y1="222.7222404809137" y2="249.67155093511278" stroke-width="6" stroke="#dc143c" stroke-linecap="round"></line><line x1="774.397295239681" x2="747.4479847854818" y1="222.7222404809137" y2="249.67155093511278" stroke-width="6" stroke="#dc143c" stroke-linecap="round"></line><line x1="6.397295239680886" x2="-20.55201521451818" y1="222.7222404809137" y2="249.67155093511278" stroke-width="6" stroke="#dc143c" stroke-linecap="round"></line>
  <animateTransform attributeName="transform" type="translate" values="0 0;-256 256" keyTimes="0;1" repeatCount="indefinite" dur="7.142857142857142s"></animateTransform>
</g><g>
  <line x1="75.41308045110102" x2="63.82072193317683" y1="83.31116991021068" y2="94.90352842813488" stroke-width="6" stroke="#ff0505" stroke-linecap="round"></line><line x1="75.41308045110102" x2="63.82072193317683" y1="-428.68883008978935" y2="-417.0964715718651" stroke-width="6" stroke="#ff0505" stroke-linecap="round"></line><line x1="331.413080451101" x2="319.82072193317686" y1="-428.68883008978935" y2="-417.0964715718651" stroke-width="6" stroke="#ff0505" stroke-linecap="round"></line><line x1="587.413080451101" x2="575.8207219331769" y1="-428.68883008978935" y2="-417.0964715718651" stroke-width="6" stroke="#ff0505" stroke-linecap="round"></line><line x1="75.41308045110102" x2="63.82072193317683" y1="-172.68883008978932" y2="-161.09647157186512" stroke-width="6" stroke="#ff0505" stroke-linecap="round"></line><line x1="331.413080451101" x2="319.82072193317686" y1="-172.68883008978932" y2="-161.09647157186512" stroke-width="6" stroke="#ff0505" stroke-linecap="round"></line><line x1="587.413080451101" x2="575.8207219331769" y1="-172.68883008978932" y2="-161.09647157186512" stroke-width="6" stroke="#ff0505" stroke-linecap="round"></line><line x1="75.41308045110102" x2="63.82072193317683" y1="83.31116991021068" y2="94.90352842813488" stroke-width="6" stroke="#ff0505" stroke-linecap="round"></line><line x1="331.413080451101" x2="319.82072193317686" y1="83.31116991021068" y2="94.90352842813488" stroke-width="6" stroke="#ff0505" stroke-linecap="round"></line><line x1="587.413080451101" x2="575.8207219331769" y1="83.31116991021068" y2="94.90352842813488" stroke-width="6" stroke="#ff0505" stroke-linecap="round"></line><line x1="37.58202457059393" x2="14.951558862554709" y1="48.019864401460566" y2="70.65033010949979" stroke-width="6" stroke="#ff0505" stroke-linecap="round"></line><line x1="37.58202457059393" x2="14.951558862554709" y1="-463.98013559853945" y2="-441.3496698905002" stroke-width="6" stroke="#ff0505" stroke-linecap="round"></line><line x1="293.58202457059394" x2="270.9515588625547" y1="-463.98013559853945" y2="-441.3496698905002" stroke-width="6" stroke="#ff0505" stroke-linecap="round"></line><line x1="549.582024570594" x2="526.9515588625547" y1="-463.98013559853945" y2="-441.3496698905002" stroke-width="6" stroke="#ff0505" stroke-linecap="round"></line><line x1="37.58202457059393" x2="14.951558862554709" y1="-207.98013559853945" y2="-185.3496698905002" stroke-width="6" stroke="#ff0505" stroke-linecap="round"></line><line x1="293.58202457059394" x2="270.9515588625547" y1="-207.98013559853945" y2="-185.3496698905002" stroke-width="6" stroke="#ff0505" stroke-linecap="round"></line><line x1="549.582024570594" x2="526.9515588625547" y1="-207.98013559853945" y2="-185.3496698905002" stroke-width="6" stroke="#ff0505" stroke-linecap="round"></line><line x1="37.58202457059393" x2="14.951558862554709" y1="48.019864401460566" y2="70.65033010949979" stroke-width="6" stroke="#ff0505" stroke-linecap="round"></line><line x1="293.58202457059394" x2="270.9515588625547" y1="48.019864401460566" y2="70.65033010949979" stroke-width="6" stroke="#ff0505" stroke-linecap="round"></line><line x1="549.582024570594" x2="526.9515588625547" y1="48.019864401460566" y2="70.65033010949979" stroke-width="6" stroke="#ff0505" stroke-linecap="round"></line><line x1="125.16841919875742" x2="114.47138404701298" y1="136.6655657119557" y2="147.36260086370015" stroke-width="6" stroke="#ff0505" stroke-linecap="round"></line><line x1="125.16841919875742" x2="114.47138404701298" y1="-375.3344342880443" y2="-364.63739913629985" stroke-width="6" stroke="#ff0505" stroke-linecap="round"></line><line x1="381.1684191987574" x2="370.471384047013" y1="-375.3344342880443" y2="-364.63739913629985" stroke-width="6" stroke="#ff0505" stroke-linecap="round"></line><line x1="637.1684191987574" x2="626.471384047013" y1="-375.3344342880443" y2="-364.63739913629985" stroke-width="6" stroke="#ff0505" stroke-linecap="round"></line><line x1="125.16841919875742" x2="114.47138404701298" y1="-119.33443428804429" y2="-108.63739913629985" stroke-width="6" stroke="#ff0505" stroke-linecap="round"></line><line x1="381.1684191987574" x2="370.471384047013" y1="-119.33443428804429" y2="-108.63739913629985" stroke-width="6" stroke="#ff0505" stroke-linecap="round"></line><line x1="637.1684191987574" x2="626.471384047013" y1="-119.33443428804429" y2="-108.63739913629985" stroke-width="6" stroke="#ff0505" stroke-linecap="round"></line><line x1="125.16841919875742" x2="114.47138404701298" y1="136.6655657119557" y2="147.36260086370015" stroke-width="6" stroke="#ff0505" stroke-linecap="round"></line><line x1="381.1684191987574" x2="370.471384047013" y1="136.6655657119557" y2="147.36260086370015" stroke-width="6" stroke="#ff0505" stroke-linecap="round"></line><line x1="637.1684191987574" x2="626.471384047013" y1="136.6655657119557" y2="147.36260086370015" stroke-width="6" stroke="#ff0505" stroke-linecap="round"></line><line x1="106.24278408502464" x2="97.64937877442323" y1="140.62380928298998" y2="149.21721459359136" stroke-width="6" stroke="#ff0505" stroke-linecap="round"></line><line x1="106.24278408502464" x2="97.64937877442323" y1="-371.37619071701" y2="-362.7827854064086" stroke-width="6" stroke="#ff0505" stroke-linecap="round"></line><line x1="362.24278408502465" x2="353.6493787744232" y1="-371.37619071701" y2="-362.7827854064086" stroke-width="6" stroke="#ff0505" stroke-linecap="round"></line><line x1="618.2427840850246" x2="609.6493787744232" y1="-371.37619071701" y2="-362.7827854064086" stroke-width="6" stroke="#ff0505" stroke-linecap="round"></line><line x1="106.24278408502464" x2="97.64937877442323" y1="-115.37619071701002" y2="-106.78278540640864" stroke-width="6" stroke="#ff0505" stroke-linecap="round"></line><line x1="362.24278408502465" x2="353.6493787744232" y1="-115.37619071701002" y2="-106.78278540640864" stroke-width="6" stroke="#ff0505" stroke-linecap="round"></line><line x1="618.2427840850246" x2="609.6493787744232" y1="-115.37619071701002" y2="-106.78278540640864" stroke-width="6" stroke="#ff0505" stroke-linecap="round"></line><line x1="106.24278408502464" x2="97.64937877442323" y1="140.62380928298998" y2="149.21721459359136" stroke-width="6" stroke="#ff0505" stroke-linecap="round"></line><line x1="362.24278408502465" x2="353.6493787744232" y1="140.62380928298998" y2="149.21721459359136" stroke-width="6" stroke="#ff0505" stroke-linecap="round"></line><line x1="618.2427840850246" x2="609.6493787744232" y1="140.62380928298998" y2="149.21721459359136" stroke-width="6" stroke="#ff0505" stroke-linecap="round"></line><line x1="176.7005545535269" x2="164.2212904580815" y1="22.71099872619193" y2="35.19026282163735" stroke-width="6" stroke="#ff0505" stroke-linecap="round"></line><line x1="176.7005545535269" x2="164.2212904580815" y1="-489.2890012738081" y2="-476.80973717836264" stroke-width="6" stroke="#ff0505" stroke-linecap="round"></line><line x1="432.7005545535269" x2="420.2212904580815" y1="-489.2890012738081" y2="-476.80973717836264" stroke-width="6" stroke="#ff0505" stroke-linecap="round"></line><line x1="688.7005545535269" x2="676.2212904580815" y1="-489.2890012738081" y2="-476.80973717836264" stroke-width="6" stroke="#ff0505" stroke-linecap="round"></line><line x1="176.7005545535269" x2="164.2212904580815" y1="-233.28900127380808" y2="-220.80973717836264" stroke-width="6" stroke="#ff0505" stroke-linecap="round"></line><line x1="432.7005545535269" x2="420.2212904580815" y1="-233.28900127380808" y2="-220.80973717836264" stroke-width="6" stroke="#ff0505" stroke-linecap="round"></line><line x1="688.7005545535269" x2="676.2212904580815" y1="-233.28900127380808" y2="-220.80973717836264" stroke-width="6" stroke="#ff0505" stroke-linecap="round"></line><line x1="176.7005545535269" x2="164.2212904580815" y1="22.71099872619193" y2="35.19026282163735" stroke-width="6" stroke="#ff0505" stroke-linecap="round"></line><line x1="432.7005545535269" x2="420.2212904580815" y1="22.71099872619193" y2="35.19026282163735" stroke-width="6" stroke="#ff0505" stroke-linecap="round"></line><line x1="688.7005545535269" x2="676.2212904580815" y1="22.71099872619193" y2="35.19026282163735" stroke-width="6" stroke="#ff0505" stroke-linecap="round"></line><line x1="123.61329795568356" x2="105.24541028293349" y1="157.07309842603496" y2="175.440986098785" stroke-width="6" stroke="#ff0505" stroke-linecap="round"></line><line x1="123.61329795568356" x2="105.24541028293349" y1="-354.92690157396504" y2="-336.559013901215" stroke-width="6" stroke="#ff0505" stroke-linecap="round"></line><line x1="379.61329795568355" x2="361.2454102829335" y1="-354.92690157396504" y2="-336.559013901215" stroke-width="6" stroke="#ff0505" stroke-linecap="round"></line><line x1="635.6132979556836" x2="617.2454102829334" y1="-354.92690157396504" y2="-336.559013901215" stroke-width="6" stroke="#ff0505" stroke-linecap="round"></line><line x1="123.61329795568356" x2="105.24541028293349" y1="-98.92690157396504" y2="-80.559013901215" stroke-width="6" stroke="#ff0505" stroke-linecap="round"></line><line x1="379.61329795568355" x2="361.2454102829335" y1="-98.92690157396504" y2="-80.559013901215" stroke-width="6" stroke="#ff0505" stroke-linecap="round"></line><line x1="635.6132979556836" x2="617.2454102829334" y1="-98.92690157396504" y2="-80.559013901215" stroke-width="6" stroke="#ff0505" stroke-linecap="round"></line><line x1="123.61329795568356" x2="105.24541028293349" y1="157.07309842603496" y2="175.440986098785" stroke-width="6" stroke="#ff0505" stroke-linecap="round"></line><line x1="379.61329795568355" x2="361.2454102829335" y1="157.07309842603496" y2="175.440986098785" stroke-width="6" stroke="#ff0505" stroke-linecap="round"></line><line x1="635.6132979556836" x2="617.2454102829334" y1="157.07309842603496" y2="175.440986098785" stroke-width="6" stroke="#ff0505" stroke-linecap="round"></line><line x1="239.6001050282744" x2="217.38298038847387" y1="18.251400700228647" y2="40.46852534002922" stroke-width="6" stroke="#ff0505" stroke-linecap="round"></line><line x1="239.6001050282744" x2="217.38298038847387" y1="-493.74859929977134" y2="-471.5314746599708" stroke-width="6" stroke="#ff0505" stroke-linecap="round"></line><line x1="495.6001050282744" x2="473.38298038847387" y1="-493.74859929977134" y2="-471.5314746599708" stroke-width="6" stroke="#ff0505" stroke-linecap="round"></line><line x1="751.6001050282744" x2="729.3829803884739" y1="-493.74859929977134" y2="-471.5314746599708" stroke-width="6" stroke="#ff0505" stroke-linecap="round"></line><line x1="239.6001050282744" x2="217.38298038847387" y1="-237.74859929977134" y2="-215.5314746599708" stroke-width="6" stroke="#ff0505" stroke-linecap="round"></line><line x1="495.6001050282744" x2="473.38298038847387" y1="-237.74859929977134" y2="-215.5314746599708" stroke-width="6" stroke="#ff0505" stroke-linecap="round"></line><line x1="751.6001050282744" x2="729.3829803884739" y1="-237.74859929977134" y2="-215.5314746599708" stroke-width="6" stroke="#ff0505" stroke-linecap="round"></line><line x1="239.6001050282744" x2="217.38298038847387" y1="18.251400700228647" y2="40.46852534002922" stroke-width="6" stroke="#ff0505" stroke-linecap="round"></line><line x1="495.6001050282744" x2="473.38298038847387" y1="18.251400700228647" y2="40.46852534002922" stroke-width="6" stroke="#ff0505" stroke-linecap="round"></line><line x1="751.6001050282744" x2="729.3829803884739" y1="18.251400700228647" y2="40.46852534002922" stroke-width="6" stroke="#ff0505" stroke-linecap="round"></line>
  <animateTransform attributeName="transform" type="translate" values="0 0;-256 256" keyTimes="0;1" repeatCount="indefinite" dur="4.761904761904762s"></animateTransform>
</g></g>
</svg>